<svg width="32" height="32" viewBox="0 0 32 32" fill="none" xmlns="http://www.w3.org/2000/svg">
<path d="M11.615 20.7578C12.7959 19.6299 14.366 19.0005 15.9991 19.0005C17.6321 19.0005 19.2022 19.6299 20.3831 20.7578" stroke="black" stroke-width="2" stroke-linecap="round" stroke-linejoin="round"/>
<path d="M7.37231 16.5152C9.67852 14.262 12.7748 13.0005 15.999 13.0005C19.2232 13.0005 22.3195 14.262 24.6257 16.5152" stroke="black" stroke-width="2" stroke-linecap="round" stroke-linejoin="round"/>
<path d="M3.13306 12.2726C6.56323 8.89416 11.1846 7.00049 15.9991 7.00049C20.8136 7.00049 25.435 8.89416 28.8652 12.2726" stroke="black" stroke-width="2" stroke-linecap="round" stroke-linejoin="round"/>
<path d="M16 26.5C16.8284 26.5 17.5 25.8284 17.5 25C17.5 24.1716 16.8284 23.5 16 23.5C15.1716 23.5 14.5 24.1716 14.5 25C14.5 25.8284 15.1716 26.5 16 26.5Z" fill="black"/>
</svg>
